<svg width="249" height="97" viewBox="0 0 249 97" fill="none" xmlns="http://www.w3.org/2000/svg">
<path d="M14.7223 29.0596C15.7407 29.0596 16.5658 29.884 16.5658 30.9017V72.5499C16.5658 79.2229 17.8485 83.7123 25.0356 83.7123C29.3092 83.7123 34.9364 81.3227 38.733 79.9056C39.4549 79.6351 39.9254 78.9459 39.9254 78.1794V30.9017C39.9254 29.884 40.7505 29.0596 41.7689 29.0596H54.6477C55.6661 29.0596 56.4912 29.884 56.4912 30.9017V93.9279C56.4912 94.9456 55.6661 95.7701 54.6477 95.7701H46.0812C44.9919 95.7701 43.9992 95.1388 43.5286 94.1533L43.3159 93.7025C42.6585 92.3048 41.0083 91.6928 39.6031 92.3434C34.6914 94.6107 28.5808 96.923 21.8256 96.923C5.00841 96.923 0 86.92 0 74.347V30.9017C0 29.884 0.825066 29.0596 1.84351 29.0596H14.7223Z" fill="#3AD87E"/>
<path d="M98.8476 92.692C99.0152 93.5809 98.5318 94.4891 97.6745 94.7854C93.0528 96.4021 88.0509 96.9238 83.99 96.9238C72.9483 96.9238 69.3516 90.5085 69.3516 83.069V4.62928C69.3516 3.76617 69.9575 3.01256 70.8019 2.83221L83.6871 0.0432136C84.8344 -0.207989 85.9173 0.668 85.9173 1.84028V77.9355C85.9173 81.5296 86.0462 83.3267 90.0233 83.3267C91.074 83.3267 93.1173 82.9724 94.993 82.5795C96.005 82.3669 96.9913 83.0175 97.1846 84.0352L98.8476 92.6985V92.692Z" fill="#3AD87E"/>
<path d="M151.832 91.6945C152.122 92.6671 151.581 93.7106 150.601 93.9875C145.013 95.5721 137.297 96.9247 129.891 96.9247C116.026 96.9247 110.379 90.1293 110.379 78.5804V43.8629C110.379 42.8452 109.554 42.0207 108.536 42.0207H99.2537C98.2352 42.0207 97.4102 41.1963 97.4102 40.1786V30.9034C97.4102 29.8857 98.2352 29.0612 99.2537 29.0612H108.536C109.554 29.0612 110.379 28.2368 110.379 27.2191V12.8619C110.379 11.9859 110.998 11.2323 111.855 11.0584L124.734 8.46905C125.875 8.23717 126.938 9.11316 126.938 10.2726V27.2191C126.938 28.2368 127.764 29.0612 128.782 29.0612H148.977C149.995 29.0612 150.82 29.8857 150.82 30.9034V40.1786C150.82 41.1963 149.995 42.0207 148.977 42.0207H128.782C127.764 42.0207 126.938 42.8452 126.938 43.8629V74.6063C126.938 81.9169 128.092 83.714 134.126 83.714C137.387 83.714 142.924 82.8251 147.095 81.8268C148.042 81.6013 148.99 82.1617 149.267 83.0956L151.832 91.6945Z" fill="#3AD87E"/>
<path d="M175.833 29.0596H162.961C161.943 29.0596 161.117 29.8843 161.117 30.9017V93.9279C161.117 94.9453 161.943 95.7701 162.961 95.7701H175.833C176.851 95.7701 177.677 94.9453 177.677 93.9279V30.9017C177.677 29.8843 176.851 29.0596 175.833 29.0596Z" fill="#3AD87E"/>
<path d="M167.236 22.8242V29.6273H171.748V21.2539H167.236V22.8242Z" fill="#3AD87E"/>
<path d="M247.15 95.8469H237.578C236.785 95.8469 236.089 95.3445 235.831 94.5909C235.663 94.0949 235.489 93.6054 235.315 93.1095C234.941 92.0853 233.788 91.6087 232.795 92.0596C226.42 94.958 219.355 96.9999 213.477 96.9999C195.332 96.9999 190.439 87.0999 190.439 73.0776V51.4742C190.439 33.6001 201.12 27.8096 216.822 27.8096C228.695 27.8096 241.774 29.89 247.672 31.5261C248.465 31.7451 249 32.4729 249 33.2974V94.0048C249 95.0225 248.175 95.8469 247.156 95.8469H247.15ZM232.26 43.8415C232.26 42.9719 231.648 42.2054 230.797 42.038C226.24 41.1233 222.159 40.8077 219.136 40.8077C208.578 40.8077 207.166 44.5371 207.166 53.2841V70.3917C207.166 79.0099 208.069 83.641 216.693 83.641C220.87 83.641 226.82 81.4317 231.254 79.2611C231.88 78.9519 232.273 78.3142 232.273 77.6122V43.8479L232.26 43.8415Z" fill="#3AD87E"/>
<path d="M157.995 17.9438V10.7233C158.233 7.33528 161.43 5.7701 164.75 7.40614L179.988 14.3303C184.732 16.7329 182.502 22.1305 178.505 22.1305H162.185C159.87 22.1305 157.988 20.2561 157.988 17.9373L157.995 17.9438Z" fill="#3AD87E"/>
</svg>
