<svg width="1440" height="1418" viewBox="0 0 1440 1418" fill="none" xmlns="http://www.w3.org/2000/svg">
<path d="M-369.524 1H-424V55.4615M-369.524 1V55.4615M-369.524 1H-315.048M-424 55.4615H-369.524M-424 55.4615V109.923M-369.524 55.4615H-315.048M-369.524 55.4615V109.923M-315.048 1V55.4615M-315.048 1H-260.571M-315.048 55.4615H-260.571M-315.048 55.4615V109.923M-260.571 1V55.4615M-260.571 1H-206.095M-260.571 55.4615H-206.095M-260.571 55.4615V109.923M-206.095 1V55.4615M-206.095 1H-151.619M-206.095 55.4615H-151.619M-206.095 55.4615V109.923M-151.619 1V55.4615M-151.619 1H-97.1429M-151.619 55.4615H-97.1429M-151.619 55.4615V109.923M-97.1429 1V55.4615M-97.1429 1H-42.6667M-97.1429 55.4615H-42.6667M-97.1429 55.4615V109.923M-42.6667 1V55.4615M-42.6667 1H11.8095M-42.6667 55.4615H11.8095M-42.6667 55.4615V109.923M11.8095 1V55.4615M11.8095 1H66.2857M11.8095 55.4615H66.2857M11.8095 55.4615V109.923M66.2857 1V55.4615M66.2857 1H120.762M66.2857 55.4615H120.762M66.2857 55.4615V109.923M120.762 1V55.4615M120.762 1H175.238M120.762 55.4615H175.238M120.762 55.4615V109.923M175.238 1V55.4615M175.238 1H229.714M175.238 55.4615H229.714M175.238 55.4615V109.923M229.714 1V55.4615M229.714 1H284.19M229.714 55.4615H284.19M229.714 55.4615V109.923M284.19 1V55.4615M284.19 1H338.667M284.19 55.4615H338.667M284.19 55.4615V109.923M338.667 1V55.4615M338.667 1H393.143M338.667 55.4615H393.143M338.667 55.4615V109.923M393.143 1V55.4615M393.143 1H447.619M393.143 55.4615H447.619M393.143 55.4615V109.923M447.619 1V55.4615M447.619 1H502.095M447.619 55.4615H502.095M447.619 55.4615V109.923M502.095 1V55.4615M502.095 1H556.571M502.095 55.4615H556.571M502.095 55.4615V109.923M556.571 1V55.4615M556.571 1H611.048M556.571 55.4615H611.048M556.571 55.4615V109.923M611.048 1V55.4615M611.048 1H665.524M611.048 55.4615H665.524M611.048 55.4615V109.923M665.524 1V55.4615M665.524 1H720M665.524 55.4615H720M665.524 55.4615V109.923M720 1V55.4615M720 1H774.476M720 55.4615V109.923M720 55.4615H774.476M-424 109.923H-369.524M-424 109.923V164.385M-369.524 109.923H-315.048M-369.524 109.923V164.385M-315.048 109.923H-260.571M-315.048 109.923V164.385M-260.571 109.923H-206.095M-260.571 109.923V164.385M-206.095 109.923H-151.619M-206.095 109.923V164.385M-151.619 109.923H-97.1429M-151.619 109.923V164.385M-97.1429 109.923H-42.6667M-97.1429 109.923V164.385M-42.6667 109.923H11.8095M-42.6667 109.923V164.385M11.8095 109.923H66.2857M11.8095 109.923V164.385M66.2857 109.923H120.762M66.2857 109.923V164.385M120.762 109.923H175.238M120.762 109.923V164.385M175.238 109.923H229.714M175.238 109.923V164.385M229.714 109.923H284.19M229.714 109.923V164.385M284.19 109.923H338.667M284.19 109.923V164.385M338.667 109.923H393.143M338.667 109.923V164.385M393.143 109.923H447.619M393.143 109.923V164.385M447.619 109.923H502.095M447.619 109.923V164.385M502.095 109.923H556.571M502.095 109.923V164.385M556.571 109.923H611.048M556.571 109.923V164.385M611.048 109.923H665.524M611.048 109.923V164.385M665.524 109.923H720M665.524 109.923V164.385M720 109.923V164.385M720 109.923H774.476M-424 164.385H-369.524M-424 164.385V218.846M-369.524 164.385H-315.048M-369.524 164.385V218.846M-315.048 164.385H-260.571M-315.048 164.385V218.846M-260.571 164.385H-206.095M-260.571 164.385V218.846M-206.095 164.385H-151.619M-206.095 164.385V218.846M-151.619 164.385H-97.1429M-151.619 164.385V218.846M-97.1429 164.385H-42.6667M-97.1429 164.385V218.846M-42.6667 164.385H11.8095M-42.6667 164.385V218.846M11.8095 164.385H66.2857M11.8095 164.385V218.846M66.2857 164.385H120.762M66.2857 164.385V218.846M120.762 164.385H175.238M120.762 164.385V218.846M175.238 164.385H229.714M175.238 164.385V218.846M229.714 164.385H284.19M229.714 164.385V218.846M284.19 164.385H338.667M284.19 164.385V218.846M338.667 164.385H393.143M338.667 164.385V218.846M393.143 164.385H447.619M393.143 164.385V218.846M447.619 164.385H502.095M447.619 164.385V218.846M502.095 164.385H556.571M502.095 164.385V218.846M556.571 164.385H611.048M556.571 164.385V218.846M611.048 164.385H665.524M611.048 164.385V218.846M665.524 164.385H720M665.524 164.385V218.846M720 164.385V218.846M720 164.385H774.476M-424 218.846H-369.524M-424 218.846V273.308M-369.524 218.846H-315.048M-369.524 218.846V273.308M-315.048 218.846H-260.571M-315.048 218.846V273.308M-260.571 218.846H-206.095M-260.571 218.846V273.308M-206.095 218.846H-151.619M-206.095 218.846V273.308M-151.619 218.846H-97.1429M-151.619 218.846V273.308M-97.1429 218.846H-42.6667M-97.1429 218.846V273.308M-42.6667 218.846H11.8095M-42.6667 218.846V273.308M11.8095 218.846H66.2857M11.8095 218.846V273.308M66.2857 218.846H120.762M66.2857 218.846V273.308M120.762 218.846H175.238M120.762 218.846V273.308M175.238 218.846H229.714M175.238 218.846V273.308M229.714 218.846H284.19M229.714 218.846V273.308M284.19 218.846H338.667M284.19 218.846V273.308M338.667 218.846H393.143M338.667 218.846V273.308M393.143 218.846H447.619M393.143 218.846V273.308M447.619 218.846H502.095M447.619 218.846V273.308M502.095 218.846H556.571M502.095 218.846V273.308M556.571 218.846H611.048M556.571 218.846V273.308M611.048 218.846H665.524M611.048 218.846V273.308M665.524 218.846H720M665.524 218.846V273.308M720 218.846V273.308M720 218.846H774.476M-424 273.308H-369.524M-424 273.308V327.769M-369.524 273.308H-315.048M-369.524 273.308V327.769M-315.048 273.308H-260.571M-315.048 273.308V327.769M-260.571 273.308H-206.095M-260.571 273.308V327.769M-206.095 273.308H-151.619M-206.095 273.308V327.769M-151.619 273.308H-97.1429M-151.619 273.308V327.769M-97.1429 273.308H-42.6667M-97.1429 273.308V327.769M-42.6667 273.308H11.8095M-42.6667 273.308V327.769M11.8095 273.308H66.2857M11.8095 273.308V327.769M66.2857 273.308H120.762M66.2857 273.308V327.769M120.762 273.308H175.238M120.762 273.308V327.769M175.238 273.308H229.714M175.238 273.308V327.769M229.714 273.308H284.19M229.714 273.308V327.769M284.19 273.308H338.667M284.19 273.308V327.769M338.667 273.308H393.143M338.667 273.308V327.769M393.143 273.308H447.619M393.143 273.308V327.769M447.619 273.308H502.095M447.619 273.308V327.769M502.095 273.308H556.571M502.095 273.308V327.769M556.571 273.308H611.048M556.571 273.308V327.769M611.048 273.308H665.524M611.048 273.308V327.769M665.524 273.308H720M665.524 273.308V327.769M720 273.308V327.769M720 273.308H774.476M-424 327.769H-369.524M-424 327.769V382.231M-369.524 327.769H-315.048M-369.524 327.769V382.231M-315.048 327.769H-260.571M-315.048 327.769V382.231M-260.571 327.769H-206.095M-260.571 327.769V382.231M-206.095 327.769H-151.619M-206.095 327.769V382.231M-151.619 327.769H-97.1429M-151.619 327.769V382.231M-97.1429 327.769H-42.6667M-97.1429 327.769V382.231M-42.6667 327.769H11.8095M-42.6667 327.769V382.231M11.8095 327.769H66.2857M11.8095 327.769V382.231M66.2857 327.769H120.762M66.2857 327.769V382.231M120.762 327.769H175.238M120.762 327.769V382.231M175.238 327.769H229.714M175.238 327.769V382.231M229.714 327.769H284.19M229.714 327.769V382.231M284.19 327.769H338.667M284.19 327.769V382.231M338.667 327.769H393.143M338.667 327.769V382.231M393.143 327.769H447.619M393.143 327.769V382.231M447.619 327.769H502.095M447.619 327.769V382.231M502.095 327.769H556.571M502.095 327.769V382.231M556.571 327.769H611.048M556.571 327.769V382.231M611.048 327.769H665.524M611.048 327.769V382.231M665.524 327.769H720M665.524 327.769V382.231M720 327.769V382.231M720 327.769H774.476M-424 382.231H-369.524M-424 382.231V436.692M-369.524 382.231H-315.048M-369.524 382.231V436.692M-315.048 382.231H-260.571M-315.048 382.231V436.692M-260.571 382.231H-206.095M-260.571 382.231V436.692M-206.095 382.231H-151.619M-206.095 382.231V436.692M-151.619 382.231H-97.1429M-151.619 382.231V436.692M-97.1429 382.231H-42.6667M-97.1429 382.231V436.692M-42.6667 382.231H11.8095M-42.6667 382.231V436.692M11.8095 382.231H66.2857M11.8095 382.231V436.692M66.2857 382.231H120.762M66.2857 382.231V436.692M120.762 382.231H175.238M120.762 382.231V436.692M175.238 382.231H229.714M175.238 382.231V436.692M229.714 382.231H284.19M229.714 382.231V436.692M284.19 382.231H338.667M284.19 382.231V436.692M338.667 382.231H393.143M338.667 382.231V436.692M393.143 382.231H447.619M393.143 382.231V436.692M447.619 382.231H502.095M447.619 382.231V436.692M502.095 382.231H556.571M502.095 382.231V436.692M556.571 382.231H611.048M556.571 382.231V436.692M611.048 382.231H665.524M611.048 382.231V436.692M665.524 382.231H720M665.524 382.231V436.692M720 382.231V436.692M720 382.231H774.476M-424 436.692H-369.524M-424 436.692V491.154M-369.524 436.692H-315.048M-369.524 436.692V491.154M-315.048 436.692H-260.571M-315.048 436.692V491.154M-260.571 436.692H-206.095M-260.571 436.692V491.154M-206.095 436.692H-151.619M-206.095 436.692V491.154M-151.619 436.692H-97.1429M-151.619 436.692V491.154M-97.1429 436.692H-42.6667M-97.1429 436.692V491.154M-42.6667 436.692H11.8095M-42.6667 436.692V491.154M11.8095 436.692H66.2857M11.8095 436.692V491.154M66.2857 436.692H120.762M66.2857 436.692V491.154M120.762 436.692H175.238M120.762 436.692V491.154M175.238 436.692H229.714M175.238 436.692V491.154M229.714 436.692H284.19M229.714 436.692V491.154M284.19 436.692H338.667M284.19 436.692V491.154M338.667 436.692H393.143M338.667 436.692V491.154M393.143 436.692H447.619M393.143 436.692V491.154M447.619 436.692H502.095M447.619 436.692V491.154M502.095 436.692H556.571M502.095 436.692V491.154M556.571 436.692H611.048M556.571 436.692V491.154M611.048 436.692H665.524M611.048 436.692V491.154M665.524 436.692H720M665.524 436.692V491.154M720 436.692V491.154M720 436.692H774.476M-424 491.154H-369.524M-424 491.154V545.615M-369.524 491.154H-315.048M-369.524 491.154V545.615M-315.048 491.154H-260.571M-315.048 491.154V545.615M-260.571 491.154H-206.095M-260.571 491.154V545.615M-206.095 491.154H-151.619M-206.095 491.154V545.615M-151.619 491.154H-97.1429M-151.619 491.154V545.615M-97.1429 491.154H-42.6667M-97.1429 491.154V545.615M-42.6667 491.154H11.8095M-42.6667 491.154V545.615M11.8095 491.154H66.2857M11.8095 491.154V545.615M66.2857 491.154H120.762M66.2857 491.154V545.615M120.762 491.154H175.238M120.762 491.154V545.615M175.238 491.154H229.714M175.238 491.154V545.615M229.714 491.154H284.19M229.714 491.154V545.615M284.19 491.154H338.667M284.19 491.154V545.615M338.667 491.154H393.143M338.667 491.154V545.615M393.143 491.154H447.619M393.143 491.154V545.615M447.619 491.154H502.095M447.619 491.154V545.615M502.095 491.154H556.571M502.095 491.154V545.615M556.571 491.154H611.048M556.571 491.154V545.615M611.048 491.154H665.524M611.048 491.154V545.615M665.524 491.154H720M665.524 491.154V545.615M720 491.154V545.615M720 491.154H774.476M-424 545.615H-369.524M-424 545.615V600.077M-369.524 545.615H-315.048M-369.524 545.615V600.077M-315.048 545.615H-260.571M-315.048 545.615V600.077M-260.571 545.615H-206.095M-260.571 545.615V600.077M-206.095 545.615H-151.619M-206.095 545.615V600.077M-151.619 545.615H-97.1429M-151.619 545.615V600.077M-97.1429 545.615H-42.6667M-97.1429 545.615V600.077M-42.6667 545.615H11.8095M-42.6667 545.615V600.077M11.8095 545.615H66.2857M11.8095 545.615V600.077M66.2857 545.615H120.762M66.2857 545.615V600.077M120.762 545.615H175.238M120.762 545.615V600.077M175.238 545.615H229.714M175.238 545.615V600.077M229.714 545.615H284.19M229.714 545.615V600.077M284.19 545.615H338.667M284.19 545.615V600.077M338.667 545.615H393.143M338.667 545.615V600.077M393.143 545.615H447.619M393.143 545.615V600.077M447.619 545.615H502.095M447.619 545.615V600.077M502.095 545.615H556.571M502.095 545.615V600.077M556.571 545.615H611.048M556.571 545.615V600.077M611.048 545.615H665.524M611.048 545.615V600.077M665.524 545.615H720M665.524 545.615V600.077M720 545.615V600.077M720 545.615H774.476M-424 600.077H-369.524M-424 600.077V654.538M-369.524 600.077H-315.048M-369.524 600.077V654.538M-315.048 600.077H-260.571M-315.048 600.077V654.538M-260.571 600.077H-206.095M-260.571 600.077V654.538M-206.095 600.077H-151.619M-206.095 600.077V654.538M-151.619 600.077H-97.1429M-151.619 600.077V654.538M-97.1429 600.077H-42.6667M-97.1429 600.077V654.538M-42.6667 600.077H11.8095M-42.6667 600.077V654.538M11.8095 600.077H66.2857M11.8095 600.077V654.538M66.2857 600.077H120.762M66.2857 600.077V654.538M120.762 600.077H175.238M120.762 600.077V654.538M175.238 600.077H229.714M175.238 600.077V654.538M229.714 600.077H284.19M229.714 600.077V654.538M284.19 600.077H338.667M284.19 600.077V654.538M338.667 600.077H393.143M338.667 600.077V654.538M393.143 600.077H447.619M393.143 600.077V654.538M447.619 600.077H502.095M447.619 600.077V654.538M502.095 600.077H556.571M502.095 600.077V654.538M556.571 600.077H611.048M556.571 600.077V654.538M611.048 600.077H665.524M611.048 600.077V654.538M665.524 600.077H720M665.524 600.077V654.538M720 600.077V654.538M720 600.077H774.476M-424 654.538H-369.524M-424 654.538V709M-369.524 654.538H-315.048M-369.524 654.538V709M-315.048 654.538H-260.571M-315.048 654.538V709M-260.571 654.538H-206.095M-260.571 654.538V709M-206.095 654.538H-151.619M-206.095 654.538V709M-151.619 654.538H-97.1429M-151.619 654.538V709M-97.1429 654.538H-42.6667M-97.1429 654.538V709M-42.6667 654.538H11.8095M-42.6667 654.538V709M11.8095 654.538H66.2857M11.8095 654.538V709M66.2857 654.538H120.762M66.2857 654.538V709M120.762 654.538H175.238M120.762 654.538V709M175.238 654.538H229.714M175.238 654.538V709M229.714 654.538H284.19M229.714 654.538V709M284.19 654.538H338.667M284.19 654.538V709M338.667 654.538H393.143M338.667 654.538V709M393.143 654.538H447.619M393.143 654.538V709M447.619 654.538H502.095M447.619 654.538V709M502.095 654.538H556.571M502.095 654.538V709M556.571 654.538H611.048M556.571 654.538V709M611.048 654.538H665.524M611.048 654.538V709M665.524 654.538H720M665.524 654.538V709M720 654.538V709M720 654.538H774.476M-424 709H-369.524M-424 709V763.462M-369.524 709H-315.048M-369.524 709V763.462M-315.048 709H-260.571M-315.048 709V763.462M-260.571 709H-206.095M-260.571 709V763.462M-206.095 709H-151.619M-206.095 709V763.462M-151.619 709H-97.1429M-151.619 709V763.462M-97.1429 709H-42.6667M-97.1429 709V763.462M-42.6667 709H11.8095M-42.6667 709V763.462M11.8095 709H66.2857M11.8095 709V763.462M66.2857 709H120.762M66.2857 709V763.462M120.762 709H175.238M120.762 709V763.462M175.238 709H229.714M175.238 709V763.462M229.714 709H284.19M229.714 709V763.462M284.19 709H338.667M284.19 709V763.462M338.667 709H393.143M338.667 709V763.462M393.143 709H447.619M393.143 709V763.462M447.619 709H502.095M447.619 709V763.462M502.095 709H556.571M502.095 709V763.462M556.571 709H611.048M556.571 709V763.462M611.048 709H665.524M611.048 709V763.462M665.524 709H720M665.524 709V763.462M720 709H774.476M720 709V763.462M774.476 1V55.4615M774.476 1H828.952M774.476 55.4615H828.952M774.476 55.4615V109.923M828.952 1V55.4615M828.952 1H883.429M828.952 55.4615H883.429M828.952 55.4615V109.923M883.429 1V55.4615M883.429 1H937.905M883.429 55.4615H937.905M883.429 55.4615V109.923M937.905 1V55.4615M937.905 1H992.381M937.905 55.4615H992.381M937.905 55.4615V109.923M992.381 1V55.4615M992.381 1H1046.86M992.381 55.4615H1046.86M992.381 55.4615V109.923M1046.86 1V55.4615M1046.86 1H1101.33M1046.86 55.4615H1101.33M1046.86 55.4615V109.923M1101.33 1V55.4615M1101.33 1H1155.81M1101.33 55.4615H1155.81M1101.33 55.4615V109.923M1155.81 1V55.4615M1155.81 1H1210.29M1155.81 55.4615H1210.29M1155.81 55.4615V109.923M1210.29 1V55.4615M1210.29 1H1264.76M1210.29 55.4615H1264.76M1210.29 55.4615V109.923M1264.76 1V55.4615M1264.76 1H1319.24M1264.76 55.4615H1319.24M1264.76 55.4615V109.923M1319.24 1V55.4615M1319.24 1H1373.71M1319.24 55.4615H1373.71M1319.24 55.4615V109.923M1373.71 1V55.4615M1373.71 1H1428.19M1373.71 55.4615H1428.19M1373.71 55.4615V109.923M1428.19 1V55.4615M1428.19 1H1482.67M1428.19 55.4615H1482.67M1428.19 55.4615V109.923M1482.67 1V55.4615M1482.67 1H1537.14M1482.67 55.4615H1537.14M1482.67 55.4615V109.923M1537.14 1V55.4615M1537.14 1H1591.62M1537.14 55.4615H1591.62M1537.14 55.4615V109.923M1591.62 1V55.4615M1591.62 1H1646.1M1591.62 55.4615H1646.1M1591.62 55.4615V109.923M1646.1 1V55.4615M1646.1 1H1700.57M1646.1 55.4615H1700.57M1646.1 55.4615V109.923M1700.57 1V55.4615M1700.57 1H1755.05M1700.57 55.4615H1755.05M1700.57 55.4615V109.923M1755.05 1V55.4615M1755.05 1H1809.52M1755.05 55.4615H1809.52M1755.05 55.4615V109.923M1809.52 1V55.4615M1809.52 1H1864V55.4615M1809.52 55.4615H1864M1809.52 55.4615V109.923M1864 55.4615V109.923M774.476 109.923H828.952M774.476 109.923V164.385M828.952 109.923H883.429M828.952 109.923V164.385M883.429 109.923H937.905M883.429 109.923V164.385M937.905 109.923H992.381M937.905 109.923V164.385M992.381 109.923H1046.86M992.381 109.923V164.385M1046.86 109.923H1101.33M1046.86 109.923V164.385M1101.33 109.923H1155.81M1101.33 109.923V164.385M1155.81 109.923H1210.29M1155.81 109.923V164.385M1210.29 109.923H1264.76M1210.29 109.923V164.385M1264.76 109.923H1319.24M1264.76 109.923V164.385M1319.24 109.923H1373.71M1319.24 109.923V164.385M1373.71 109.923H1428.19M1373.71 109.923V164.385M1428.19 109.923H1482.67M1428.19 109.923V164.385M1482.67 109.923H1537.14M1482.67 109.923V164.385M1537.14 109.923H1591.62M1537.14 109.923V164.385M1591.62 109.923H1646.1M1591.62 109.923V164.385M1646.1 109.923H1700.57M1646.1 109.923V164.385M1700.57 109.923H1755.05M1700.57 109.923V164.385M1755.05 109.923H1809.52M1755.05 109.923V164.385M1809.52 109.923H1864M1809.52 109.923V164.385M1864 109.923V164.385M774.476 164.385H828.952M774.476 164.385V218.846M828.952 164.385H883.429M828.952 164.385V218.846M883.429 164.385H937.905M883.429 164.385V218.846M937.905 164.385H992.381M937.905 164.385V218.846M992.381 164.385H1046.86M992.381 164.385V218.846M1046.86 164.385H1101.33M1046.86 164.385V218.846M1101.33 164.385H1155.81M1101.33 164.385V218.846M1155.81 164.385H1210.29M1155.81 164.385V218.846M1210.29 164.385H1264.76M1210.29 164.385V218.846M1264.76 164.385H1319.24M1264.76 164.385V218.846M1319.24 164.385H1373.71M1319.24 164.385V218.846M1373.71 164.385H1428.19M1373.71 164.385V218.846M1428.19 164.385H1482.67M1428.19 164.385V218.846M1482.67 164.385H1537.14M1482.67 164.385V218.846M1537.14 164.385H1591.62M1537.14 164.385V218.846M1591.62 164.385H1646.1M1591.62 164.385V218.846M1646.1 164.385H1700.57M1646.1 164.385V218.846M1700.57 164.385H1755.05M1700.57 164.385V218.846M1755.05 164.385H1809.52M1755.05 164.385V218.846M1809.52 164.385H1864M1809.52 164.385V218.846M1864 164.385V218.846M774.476 218.846H828.952M774.476 218.846V273.308M828.952 218.846H883.429M828.952 218.846V273.308M883.429 218.846H937.905M883.429 218.846V273.308M937.905 218.846H992.381M937.905 218.846V273.308M992.381 218.846H1046.86M992.381 218.846V273.308M1046.86 218.846H1101.33M1046.86 218.846V273.308M1101.33 218.846H1155.81M1101.33 218.846V273.308M1155.81 218.846H1210.29M1155.81 218.846V273.308M1210.29 218.846H1264.76M1210.29 218.846V273.308M1264.76 218.846H1319.24M1264.76 218.846V273.308M1319.24 218.846H1373.71M1319.24 218.846V273.308M1373.71 218.846H1428.19M1373.71 218.846V273.308M1428.19 218.846H1482.67M1428.19 218.846V273.308M1482.67 218.846H1537.14M1482.67 218.846V273.308M1537.14 218.846H1591.62M1537.14 218.846V273.308M1591.62 218.846H1646.1M1591.62 218.846V273.308M1646.1 218.846H1700.57M1646.1 218.846V273.308M1700.57 218.846H1755.05M1700.57 218.846V273.308M1755.05 218.846H1809.52M1755.05 218.846V273.308M1809.52 218.846H1864M1809.52 218.846V273.308M1864 218.846V273.308M774.476 273.308H828.952M774.476 273.308V327.769M828.952 273.308H883.429M828.952 273.308V327.769M883.429 273.308H937.905M883.429 273.308V327.769M937.905 273.308H992.381M937.905 273.308V327.769M992.381 273.308H1046.86M992.381 273.308V327.769M1046.86 273.308H1101.33M1046.86 273.308V327.769M1101.33 273.308H1155.81M1101.33 273.308V327.769M1155.81 273.308H1210.29M1155.81 273.308V327.769M1210.29 273.308H1264.76M1210.29 273.308V327.769M1264.76 273.308H1319.24M1264.76 273.308V327.769M1319.24 273.308H1373.71M1319.24 273.308V327.769M1373.71 273.308H1428.19M1373.71 273.308V327.769M1428.19 273.308H1482.67M1428.19 273.308V327.769M1482.67 273.308H1537.14M1482.67 273.308V327.769M1537.14 273.308H1591.62M1537.14 273.308V327.769M1591.62 273.308H1646.1M1591.62 273.308V327.769M1646.1 273.308H1700.57M1646.1 273.308V327.769M1700.57 273.308H1755.05M1700.57 273.308V327.769M1755.05 273.308H1809.52M1755.05 273.308V327.769M1809.52 273.308H1864M1809.52 273.308V327.769M1864 273.308V327.769M774.476 327.769H828.952M774.476 327.769V382.231M828.952 327.769H883.429M828.952 327.769V382.231M883.429 327.769H937.905M883.429 327.769V382.231M937.905 327.769H992.381M937.905 327.769V382.231M992.381 327.769H1046.86M992.381 327.769V382.231M1046.86 327.769H1101.33M1046.86 327.769V382.231M1101.33 327.769H1155.81M1101.33 327.769V382.231M1155.81 327.769H1210.29M1155.81 327.769V382.231M1210.29 327.769H1264.76M1210.29 327.769V382.231M1264.76 327.769H1319.24M1264.76 327.769V382.231M1319.24 327.769H1373.71M1319.24 327.769V382.231M1373.71 327.769H1428.19M1373.71 327.769V382.231M1428.19 327.769H1482.67M1428.19 327.769V382.231M1482.67 327.769H1537.14M1482.67 327.769V382.231M1537.14 327.769H1591.62M1537.14 327.769V382.231M1591.62 327.769H1646.1M1591.62 327.769V382.231M1646.1 327.769H1700.57M1646.1 327.769V382.231M1700.57 327.769H1755.05M1700.57 327.769V382.231M1755.05 327.769H1809.52M1755.05 327.769V382.231M1809.52 327.769H1864M1809.52 327.769V382.231M1864 327.769V382.231M774.476 382.231H828.952M774.476 382.231V436.692M828.952 382.231H883.429M828.952 382.231V436.692M883.429 382.231H937.905M883.429 382.231V436.692M937.905 382.231H992.381M937.905 382.231V436.692M992.381 382.231H1046.86M992.381 382.231V436.692M1046.86 382.231H1101.33M1046.86 382.231V436.692M1101.33 382.231H1155.81M1101.33 382.231V436.692M1155.81 382.231H1210.29M1155.81 382.231V436.692M1210.29 382.231H1264.76M1210.29 382.231V436.692M1264.76 382.231H1319.24M1264.76 382.231V436.692M1319.24 382.231H1373.71M1319.24 382.231V436.692M1373.71 382.231H1428.19M1373.71 382.231V436.692M1428.19 382.231H1482.67M1428.19 382.231V436.692M1482.67 382.231H1537.14M1482.67 382.231V436.692M1537.14 382.231H1591.62M1537.14 382.231V436.692M1591.62 382.231H1646.1M1591.62 382.231V436.692M1646.1 382.231H1700.57M1646.1 382.231V436.692M1700.57 382.231H1755.05M1700.57 382.231V436.692M1755.05 382.231H1809.52M1755.05 382.231V436.692M1809.52 382.231H1864M1809.52 382.231V436.692M1864 382.231V436.692M774.476 436.692H828.952M774.476 436.692V491.154M828.952 436.692H883.429M828.952 436.692V491.154M883.429 436.692H937.905M883.429 436.692V491.154M937.905 436.692H992.381M937.905 436.692V491.154M992.381 436.692H1046.86M992.381 436.692V491.154M1046.86 436.692H1101.33M1046.86 436.692V491.154M1101.33 436.692H1155.81M1101.33 436.692V491.154M1155.81 436.692H1210.29M1155.81 436.692V491.154M1210.29 436.692H1264.76M1210.29 436.692V491.154M1264.76 436.692H1319.24M1264.76 436.692V491.154M1319.24 436.692H1373.71M1319.24 436.692V491.154M1373.71 436.692H1428.19M1373.71 436.692V491.154M1428.19 436.692H1482.67M1428.19 436.692V491.154M1482.67 436.692H1537.14M1482.67 436.692V491.154M1537.14 436.692H1591.62M1537.14 436.692V491.154M1591.62 436.692H1646.1M1591.62 436.692V491.154M1646.1 436.692H1700.57M1646.1 436.692V491.154M1700.57 436.692H1755.05M1700.57 436.692V491.154M1755.05 436.692H1809.52M1755.05 436.692V491.154M1809.52 436.692H1864M1809.52 436.692V491.154M1864 436.692V491.154M774.476 491.154H828.952M774.476 491.154V545.615M828.952 491.154H883.429M828.952 491.154V545.615M883.429 491.154H937.905M883.429 491.154V545.615M937.905 491.154H992.381M937.905 491.154V545.615M992.381 491.154H1046.86M992.381 491.154V545.615M1046.86 491.154H1101.33M1046.86 491.154V545.615M1101.33 491.154H1155.81M1101.33 491.154V545.615M1155.81 491.154H1210.29M1155.81 491.154V545.615M1210.29 491.154H1264.76M1210.29 491.154V545.615M1264.76 491.154H1319.24M1264.76 491.154V545.615M1319.24 491.154H1373.71M1319.24 491.154V545.615M1373.71 491.154H1428.19M1373.71 491.154V545.615M1428.19 491.154H1482.67M1428.19 491.154V545.615M1482.67 491.154H1537.14M1482.67 491.154V545.615M1537.14 491.154H1591.62M1537.14 491.154V545.615M1591.62 491.154H1646.1M1591.62 491.154V545.615M1646.1 491.154H1700.57M1646.1 491.154V545.615M1700.57 491.154H1755.05M1700.57 491.154V545.615M1755.05 491.154H1809.52M1755.05 491.154V545.615M1809.52 491.154H1864M1809.52 491.154V545.615M1864 491.154V545.615M774.476 545.615H828.952M774.476 545.615V600.077M828.952 545.615H883.429M828.952 545.615V600.077M883.429 545.615H937.905M883.429 545.615V600.077M937.905 545.615H992.381M937.905 545.615V600.077M992.381 545.615H1046.86M992.381 545.615V600.077M1046.86 545.615H1101.33M1046.86 545.615V600.077M1101.33 545.615H1155.81M1101.33 545.615V600.077M1155.81 545.615H1210.29M1155.81 545.615V600.077M1210.29 545.615H1264.76M1210.29 545.615V600.077M1264.76 545.615H1319.24M1264.76 545.615V600.077M1319.24 545.615H1373.71M1319.24 545.615V600.077M1373.71 545.615H1428.19M1373.71 545.615V600.077M1428.19 545.615H1482.67M1428.19 545.615V600.077M1482.67 545.615H1537.14M1482.67 545.615V600.077M1537.14 545.615H1591.62M1537.14 545.615V600.077M1591.62 545.615H1646.1M1591.62 545.615V600.077M1646.1 545.615H1700.57M1646.1 545.615V600.077M1700.57 545.615H1755.05M1700.57 545.615V600.077M1755.05 545.615H1809.52M1755.05 545.615V600.077M1809.52 545.615H1864M1809.52 545.615V600.077M1864 545.615V600.077M774.476 600.077H828.952M774.476 600.077V654.538M828.952 600.077H883.429M828.952 600.077V654.538M883.429 600.077H937.905M883.429 600.077V654.538M937.905 600.077H992.381M937.905 600.077V654.538M992.381 600.077H1046.86M992.381 600.077V654.538M1046.86 600.077H1101.33M1046.86 600.077V654.538M1101.33 600.077H1155.81M1101.33 600.077V654.538M1155.81 600.077H1210.29M1155.81 600.077V654.538M1210.29 600.077H1264.76M1210.29 600.077V654.538M1264.76 600.077H1319.24M1264.76 600.077V654.538M1319.24 600.077H1373.71M1319.24 600.077V654.538M1373.71 600.077H1428.19M1373.71 600.077V654.538M1428.19 600.077H1482.67M1428.19 600.077V654.538M1482.67 600.077H1537.14M1482.67 600.077V654.538M1537.14 600.077H1591.62M1537.14 600.077V654.538M1591.62 600.077H1646.1M1591.62 600.077V654.538M1646.1 600.077H1700.57M1646.1 600.077V654.538M1700.57 600.077H1755.05M1700.57 600.077V654.538M1755.05 600.077H1809.52M1755.05 600.077V654.538M1809.52 600.077H1864M1809.52 600.077V654.538M1864 600.077V654.538M774.476 654.538H828.952M774.476 654.538V709M828.952 654.538H883.429M828.952 654.538V709M883.429 654.538H937.905M883.429 654.538V709M937.905 654.538H992.381M937.905 654.538V709M992.381 654.538H1046.86M992.381 654.538V709M1046.86 654.538H1101.33M1046.86 654.538V709M1101.33 654.538H1155.81M1101.33 654.538V709M1155.81 654.538H1210.29M1155.81 654.538V709M1210.29 654.538H1264.76M1210.29 654.538V709M1264.76 654.538H1319.24M1264.76 654.538V709M1319.24 654.538H1373.71M1319.24 654.538V709M1373.71 654.538H1428.19M1373.71 654.538V709M1428.19 654.538H1482.67M1428.19 654.538V709M1482.67 654.538H1537.14M1482.67 654.538V709M1537.14 654.538H1591.62M1537.14 654.538V709M1591.62 654.538H1646.1M1591.62 654.538V709M1646.1 654.538H1700.57M1646.1 654.538V709M1700.57 654.538H1755.05M1700.57 654.538V709M1755.05 654.538H1809.52M1755.05 654.538V709M1809.52 654.538H1864M1809.52 654.538V709M1864 654.538V709M774.476 709H828.952M774.476 709V763.462M828.952 709H883.429M828.952 709V763.462M883.429 709H937.905M883.429 709V763.462M937.905 709H992.381M937.905 709V763.462M992.381 709H1046.86M992.381 709V763.462M1046.86 709H1101.33M1046.86 709V763.462M1101.33 709H1155.81M1101.33 709V763.462M1155.81 709H1210.29M1155.81 709V763.462M1210.29 709H1264.76M1210.29 709V763.462M1264.76 709H1319.24M1264.76 709V763.462M1319.24 709H1373.71M1319.24 709V763.462M1373.71 709H1428.19M1373.71 709V763.462M1428.19 709H1482.67M1428.19 709V763.462M1482.67 709H1537.14M1482.67 709V763.462M1537.14 709H1591.62M1537.14 709V763.462M1591.62 709H1646.1M1591.62 709V763.462M1646.1 709H1700.57M1646.1 709V763.462M1700.57 709H1755.05M1700.57 709V763.462M1755.05 709H1809.52M1755.05 709V763.462M1809.52 709H1864M1809.52 709V763.462M1864 709V763.462M-424 763.462H-369.524M-424 763.462V817.923M-369.524 763.462H-315.048M-369.524 763.462V817.923M-315.048 763.462H-260.571M-315.048 763.462V817.923M-260.571 763.462H-206.095M-260.571 763.462V817.923M-206.095 763.462H-151.619M-206.095 763.462V817.923M-151.619 763.462H-97.1429M-151.619 763.462V817.923M-97.1429 763.462H-42.6667M-97.1429 763.462V817.923M-42.6667 763.462H11.8095M-42.6667 763.462V817.923M11.8095 763.462H66.2857M11.8095 763.462V817.923M66.2857 763.462H120.762M66.2857 763.462V817.923M120.762 763.462H175.238M120.762 763.462V817.923M175.238 763.462H229.714M175.238 763.462V817.923M229.714 763.462H284.19M229.714 763.462V817.923M284.19 763.462H338.667M284.19 763.462V817.923M338.667 763.462H393.143M338.667 763.462V817.923M393.143 763.462H447.619M393.143 763.462V817.923M447.619 763.462H502.095M447.619 763.462V817.923M502.095 763.462H556.571M502.095 763.462V817.923M556.571 763.462H611.048M556.571 763.462V817.923M611.048 763.462H665.524M611.048 763.462V817.923M665.524 763.462H720M665.524 763.462V817.923M720 763.462V817.923M720 763.462H774.476M-424 817.923H-369.524M-424 817.923V872.385M-369.524 817.923H-315.048M-369.524 817.923V872.385M-315.048 817.923H-260.571M-315.048 817.923V872.385M-260.571 817.923H-206.095M-260.571 817.923V872.385M-206.095 817.923H-151.619M-206.095 817.923V872.385M-151.619 817.923H-97.1429M-151.619 817.923V872.385M-97.1429 817.923H-42.6667M-97.1429 817.923V872.385M-42.6667 817.923H11.8095M-42.6667 817.923V872.385M11.8095 817.923H66.2857M11.8095 817.923V872.385M66.2857 817.923H120.762M66.2857 817.923V872.385M120.762 817.923H175.238M120.762 817.923V872.385M175.238 817.923H229.714M175.238 817.923V872.385M229.714 817.923H284.19M229.714 817.923V872.385M284.19 817.923H338.667M284.19 817.923V872.385M338.667 817.923H393.143M338.667 817.923V872.385M393.143 817.923H447.619M393.143 817.923V872.385M447.619 817.923H502.095M447.619 817.923V872.385M502.095 817.923H556.571M502.095 817.923V872.385M556.571 817.923H611.048M556.571 817.923V872.385M611.048 817.923H665.524M611.048 817.923V872.385M665.524 817.923H720M665.524 817.923V872.385M720 817.923V872.385M720 817.923H774.476M-424 872.385H-369.524M-424 872.385V926.846M-369.524 872.385H-315.048M-369.524 872.385V926.846M-315.048 872.385H-260.571M-315.048 872.385V926.846M-260.571 872.385H-206.095M-260.571 872.385V926.846M-206.095 872.385H-151.619M-206.095 872.385V926.846M-151.619 872.385H-97.1429M-151.619 872.385V926.846M-97.1429 872.385H-42.6667M-97.1429 872.385V926.846M-42.6667 872.385H11.8095M-42.6667 872.385V926.846M11.8095 872.385H66.2857M11.8095 872.385V926.846M66.2857 872.385H120.762M66.2857 872.385V926.846M120.762 872.385H175.238M120.762 872.385V926.846M175.238 872.385H229.714M175.238 872.385V926.846M229.714 872.385H284.19M229.714 872.385V926.846M284.19 872.385H338.667M284.19 872.385V926.846M338.667 872.385H393.143M338.667 872.385V926.846M393.143 872.385H447.619M393.143 872.385V926.846M447.619 872.385H502.095M447.619 872.385V926.846M502.095 872.385H556.571M502.095 872.385V926.846M556.571 872.385H611.048M556.571 872.385V926.846M611.048 872.385H665.524M611.048 872.385V926.846M665.524 872.385H720M665.524 872.385V926.846M720 872.385V926.846M720 872.385H774.476M-424 926.846H-369.524M-424 926.846V981.308M-369.524 926.846H-315.048M-369.524 926.846V981.308M-315.048 926.846H-260.571M-315.048 926.846V981.308M-260.571 926.846H-206.095M-260.571 926.846V981.308M-206.095 926.846H-151.619M-206.095 926.846V981.308M-151.619 926.846H-97.1429M-151.619 926.846V981.308M-97.1429 926.846H-42.6667M-97.1429 926.846V981.308M-42.6667 926.846H11.8095M-42.6667 926.846V981.308M11.8095 926.846H66.2857M11.8095 926.846V981.308M66.2857 926.846H120.762M66.2857 926.846V981.308M120.762 926.846H175.238M120.762 926.846V981.308M175.238 926.846H229.714M175.238 926.846V981.308M229.714 926.846H284.19M229.714 926.846V981.308M284.19 926.846H338.667M284.19 926.846V981.308M338.667 926.846H393.143M338.667 926.846V981.308M393.143 926.846H447.619M393.143 926.846V981.308M447.619 926.846H502.095M447.619 926.846V981.308M502.095 926.846H556.571M502.095 926.846V981.308M556.571 926.846H611.048M556.571 926.846V981.308M611.048 926.846H665.524M611.048 926.846V981.308M665.524 926.846H720M665.524 926.846V981.308M720 926.846V981.308M720 926.846H774.476M-424 981.308H-369.524M-424 981.308V1035.77M-369.524 981.308H-315.048M-369.524 981.308V1035.77M-315.048 981.308H-260.571M-315.048 981.308V1035.77M-260.571 981.308H-206.095M-260.571 981.308V1035.77M-206.095 981.308H-151.619M-206.095 981.308V1035.77M-151.619 981.308H-97.1429M-151.619 981.308V1035.77M-97.1429 981.308H-42.6667M-97.1429 981.308V1035.77M-42.6667 981.308H11.8095M-42.6667 981.308V1035.77M11.8095 981.308H66.2857M11.8095 981.308V1035.77M66.2857 981.308H120.762M66.2857 981.308V1035.77M120.762 981.308H175.238M120.762 981.308V1035.77M175.238 981.308H229.714M175.238 981.308V1035.77M229.714 981.308H284.19M229.714 981.308V1035.77M284.19 981.308H338.667M284.19 981.308V1035.77M338.667 981.308H393.143M338.667 981.308V1035.77M393.143 981.308H447.619M393.143 981.308V1035.77M447.619 981.308H502.095M447.619 981.308V1035.77M502.095 981.308H556.571M502.095 981.308V1035.77M556.571 981.308H611.048M556.571 981.308V1035.77M611.048 981.308H665.524M611.048 981.308V1035.77M665.524 981.308H720M665.524 981.308V1035.77M720 981.308V1035.77M720 981.308H774.476M-424 1035.77H-369.524M-424 1035.77V1090.23M-369.524 1035.77H-315.048M-369.524 1035.77V1090.23M-315.048 1035.77H-260.571M-315.048 1035.77V1090.23M-260.571 1035.77H-206.095M-260.571 1035.77V1090.23M-206.095 1035.77H-151.619M-206.095 1035.77V1090.23M-151.619 1035.77H-97.1429M-151.619 1035.77V1090.23M-97.1429 1035.77H-42.6667M-97.1429 1035.77V1090.23M-42.6667 1035.77H11.8095M-42.6667 1035.77V1090.23M11.8095 1035.77H66.2857M11.8095 1035.77V1090.23M66.2857 1035.77H120.762M66.2857 1035.77V1090.23M120.762 1035.77H175.238M120.762 1035.77V1090.23M175.238 1035.77H229.714M175.238 1035.77V1090.23M229.714 1035.77H284.19M229.714 1035.77V1090.23M284.19 1035.77H338.667M284.19 1035.77V1090.23M338.667 1035.77H393.143M338.667 1035.77V1090.23M393.143 1035.77H447.619M393.143 1035.77V1090.23M447.619 1035.77H502.095M447.619 1035.77V1090.23M502.095 1035.77H556.571M502.095 1035.77V1090.23M556.571 1035.77H611.048M556.571 1035.77V1090.23M611.048 1035.77H665.524M611.048 1035.77V1090.23M665.524 1035.77H720M665.524 1035.77V1090.23M720 1035.77V1090.23M720 1035.77H774.476M-424 1090.23H-369.524M-424 1090.23V1144.69M-369.524 1090.23H-315.048M-369.524 1090.23V1144.69M-315.048 1090.23H-260.571M-315.048 1090.23V1144.69M-260.571 1090.23H-206.095M-260.571 1090.23V1144.69M-206.095 1090.23H-151.619M-206.095 1090.23V1144.69M-151.619 1090.23H-97.1429M-151.619 1090.23V1144.69M-97.1429 1090.23H-42.6667M-97.1429 1090.23V1144.69M-42.6667 1090.23H11.8095M-42.6667 1090.23V1144.69M11.8095 1090.23H66.2857M11.8095 1090.23V1144.69M66.2857 1090.23H120.762M66.2857 1090.23V1144.69M120.762 1090.23H175.238M120.762 1090.23V1144.69M175.238 1090.23H229.714M175.238 1090.23V1144.69M229.714 1090.23H284.19M229.714 1090.23V1144.69M284.19 1090.23H338.667M284.19 1090.23V1144.69M338.667 1090.23H393.143M338.667 1090.23V1144.69M393.143 1090.23H447.619M393.143 1090.23V1144.69M447.619 1090.23H502.095M447.619 1090.23V1144.69M502.095 1090.23H556.571M502.095 1090.23V1144.69M556.571 1090.23H611.048M556.571 1090.23V1144.69M611.048 1090.23H665.524M611.048 1090.23V1144.69M665.524 1090.23H720M665.524 1090.23V1144.69M720 1090.23V1144.69M720 1090.23H774.476M-424 1144.69H-369.524M-424 1144.69V1199.15M-369.524 1144.69H-315.048M-369.524 1144.69V1199.15M-315.048 1144.69H-260.571M-315.048 1144.69V1199.15M-260.571 1144.69H-206.095M-260.571 1144.69V1199.15M-206.095 1144.69H-151.619M-206.095 1144.69V1199.15M-151.619 1144.69H-97.1429M-151.619 1144.69V1199.15M-97.1429 1144.69H-42.6667M-97.1429 1144.69V1199.15M-42.6667 1144.69H11.8095M-42.6667 1144.69V1199.15M11.8095 1144.69H66.2857M11.8095 1144.69V1199.15M66.2857 1144.69H120.762M66.2857 1144.69V1199.15M120.762 1144.69H175.238M120.762 1144.69V1199.15M175.238 1144.69H229.714M175.238 1144.69V1199.15M229.714 1144.69H284.19M229.714 1144.69V1199.15M284.19 1144.69H338.667M284.19 1144.69V1199.15M338.667 1144.69H393.143M338.667 1144.69V1199.15M393.143 1144.69H447.619M393.143 1144.69V1199.15M447.619 1144.69H502.095M447.619 1144.69V1199.15M502.095 1144.69H556.571M502.095 1144.69V1199.15M556.571 1144.69H611.048M556.571 1144.69V1199.15M611.048 1144.69H665.524M611.048 1144.69V1199.15M665.524 1144.69H720M665.524 1144.69V1199.15M720 1144.69V1199.15M720 1144.69H774.476M-424 1199.15H-369.524M-424 1199.15V1253.62M-369.524 1199.15H-315.048M-369.524 1199.15V1253.62M-315.048 1199.15H-260.571M-315.048 1199.15V1253.62M-260.571 1199.15H-206.095M-260.571 1199.15V1253.62M-206.095 1199.15H-151.619M-206.095 1199.15V1253.62M-151.619 1199.15H-97.1429M-151.619 1199.15V1253.62M-97.1429 1199.15H-42.6667M-97.1429 1199.15V1253.62M-42.6667 1199.15H11.8095M-42.6667 1199.15V1253.62M11.8095 1199.15H66.2857M11.8095 1199.15V1253.62M66.2857 1199.15H120.762M66.2857 1199.15V1253.62M120.762 1199.15H175.238M120.762 1199.15V1253.62M175.238 1199.15H229.714M175.238 1199.15V1253.62M229.714 1199.15H284.19M229.714 1199.15V1253.62M284.19 1199.15H338.667M284.19 1199.15V1253.62M338.667 1199.15H393.143M338.667 1199.15V1253.62M393.143 1199.15H447.619M393.143 1199.15V1253.62M447.619 1199.15H502.095M447.619 1199.15V1253.62M502.095 1199.15H556.571M502.095 1199.15V1253.62M556.571 1199.15H611.048M556.571 1199.15V1253.62M611.048 1199.15H665.524M611.048 1199.15V1253.62M665.524 1199.15H720M665.524 1199.15V1253.62M720 1199.15V1253.62M720 1199.15H774.476M-424 1253.62H-369.524M-424 1253.62V1308.08M-369.524 1253.62H-315.048M-369.524 1253.62V1308.08M-315.048 1253.62H-260.571M-315.048 1253.62V1308.08M-260.571 1253.62H-206.095M-260.571 1253.62V1308.08M-206.095 1253.62H-151.619M-206.095 1253.62V1308.08M-151.619 1253.62H-97.1429M-151.619 1253.62V1308.08M-97.1429 1253.62H-42.6667M-97.1429 1253.62V1308.08M-42.6667 1253.62H11.8095M-42.6667 1253.62V1308.08M11.8095 1253.62H66.2857M11.8095 1253.62V1308.08M66.2857 1253.62H120.762M66.2857 1253.62V1308.08M120.762 1253.62H175.238M120.762 1253.62V1308.08M175.238 1253.62H229.714M175.238 1253.62V1308.08M229.714 1253.62H284.19M229.714 1253.62V1308.08M284.19 1253.62H338.667M284.19 1253.62V1308.08M338.667 1253.62H393.143M338.667 1253.62V1308.08M393.143 1253.62H447.619M393.143 1253.62V1308.08M447.619 1253.62H502.095M447.619 1253.62V1308.08M502.095 1253.62H556.571M502.095 1253.62V1308.08M556.571 1253.62H611.048M556.571 1253.62V1308.08M611.048 1253.62H665.524M611.048 1253.62V1308.08M665.524 1253.62H720M665.524 1253.62V1308.08M720 1253.62V1308.08M720 1253.62H774.476M-424 1308.08H-369.524M-424 1308.08V1362.54M-369.524 1308.08H-315.048M-369.524 1308.08V1362.54M-315.048 1308.08H-260.571M-315.048 1308.08V1362.54M-260.571 1308.08H-206.095M-260.571 1308.08V1362.54M-206.095 1308.08H-151.619M-206.095 1308.08V1362.54M-151.619 1308.08H-97.1429M-151.619 1308.08V1362.54M-97.1429 1308.08H-42.6667M-97.1429 1308.08V1362.54M-42.6667 1308.08H11.8095M-42.6667 1308.08V1362.54M11.8095 1308.08H66.2857M11.8095 1308.08V1362.54M66.2857 1308.08H120.762M66.2857 1308.08V1362.54M120.762 1308.08H175.238M120.762 1308.08V1362.54M175.238 1308.08H229.714M175.238 1308.08V1362.54M229.714 1308.08H284.19M229.714 1308.08V1362.54M284.19 1308.08H338.667M284.19 1308.08V1362.54M338.667 1308.08H393.143M338.667 1308.08V1362.54M393.143 1308.08H447.619M393.143 1308.08V1362.54M447.619 1308.08H502.095M447.619 1308.08V1362.54M502.095 1308.08H556.571M502.095 1308.08V1362.54M556.571 1308.08H611.048M556.571 1308.08V1362.54M611.048 1308.08H665.524M611.048 1308.08V1362.54M665.524 1308.08H720M665.524 1308.08V1362.54M720 1308.08V1362.54M720 1308.08H774.476M-424 1362.54H-369.524M-424 1362.54V1417H-369.524M-369.524 1362.54H-315.048M-369.524 1362.54V1417M-315.048 1362.54H-260.571M-315.048 1362.54V1417M-260.571 1362.54H-206.095M-260.571 1362.54V1417M-206.095 1362.54H-151.619M-206.095 1362.54V1417M-151.619 1362.54H-97.1429M-151.619 1362.54V1417M-97.1429 1362.54H-42.6667M-97.1429 1362.54V1417M-42.6667 1362.54H11.8095M-42.6667 1362.54V1417M11.8095 1362.54H66.2857M11.8095 1362.54V1417M66.2857 1362.54H120.762M66.2857 1362.54V1417M120.762 1362.54H175.238M120.762 1362.54V1417M175.238 1362.54H229.714M175.238 1362.54V1417M229.714 1362.54H284.19M229.714 1362.54V1417M284.19 1362.54H338.667M284.19 1362.54V1417M338.667 1362.54H393.143M338.667 1362.54V1417M393.143 1362.54H447.619M393.143 1362.54V1417M447.619 1362.54H502.095M447.619 1362.54V1417M502.095 1362.54H556.571M502.095 1362.54V1417M556.571 1362.54H611.048M556.571 1362.54V1417M611.048 1362.54H665.524M611.048 1362.54V1417M665.524 1362.54H720M665.524 1362.54V1417M720 1362.54V1417M720 1362.54H774.476M-369.524 1417H-315.048M-315.048 1417H-260.571M-260.571 1417H-206.095M-206.095 1417H-151.619M-151.619 1417H-97.1429M-97.1429 1417H-42.6667M-42.6667 1417H11.8095M11.8095 1417H66.2857M66.2857 1417H120.762M120.762 1417H175.238M175.238 1417H229.714M229.714 1417H284.19M284.19 1417H338.667M338.667 1417H393.143M393.143 1417H447.619M447.619 1417H502.095M502.095 1417H556.571M556.571 1417H611.048M611.048 1417H665.524M665.524 1417H720M720 1417H774.476M774.476 763.462H828.952M774.476 763.462V817.923M828.952 763.462H883.429M828.952 763.462V817.923M883.429 763.462H937.905M883.429 763.462V817.923M937.905 763.462H992.381M937.905 763.462V817.923M992.381 763.462H1046.86M992.381 763.462V817.923M1046.86 763.462H1101.33M1046.86 763.462V817.923M1101.33 763.462H1155.81M1101.33 763.462V817.923M1155.81 763.462H1210.29M1155.81 763.462V817.923M1210.29 763.462H1264.76M1210.29 763.462V817.923M1264.76 763.462H1319.24M1264.76 763.462V817.923M1319.24 763.462H1373.71M1319.24 763.462V817.923M1373.71 763.462H1428.19M1373.71 763.462V817.923M1428.19 763.462H1482.67M1428.19 763.462V817.923M1482.67 763.462H1537.14M1482.67 763.462V817.923M1537.14 763.462H1591.62M1537.14 763.462V817.923M1591.62 763.462H1646.1M1591.62 763.462V817.923M1646.1 763.462H1700.57M1646.1 763.462V817.923M1700.57 763.462H1755.05M1700.57 763.462V817.923M1755.05 763.462H1809.52M1755.05 763.462V817.923M1809.52 763.462H1864M1809.52 763.462V817.923M1864 763.462V817.923M774.476 817.923H828.952M774.476 817.923V872.385M828.952 817.923H883.429M828.952 817.923V872.385M883.429 817.923H937.905M883.429 817.923V872.385M937.905 817.923H992.381M937.905 817.923V872.385M992.381 817.923H1046.86M992.381 817.923V872.385M1046.86 817.923H1101.33M1046.86 817.923V872.385M1101.33 817.923H1155.81M1101.33 817.923V872.385M1155.81 817.923H1210.29M1155.81 817.923V872.385M1210.29 817.923H1264.76M1210.29 817.923V872.385M1264.76 817.923H1319.24M1264.76 817.923V872.385M1319.24 817.923H1373.71M1319.24 817.923V872.385M1373.71 817.923H1428.19M1373.71 817.923V872.385M1428.19 817.923H1482.67M1428.19 817.923V872.385M1482.67 817.923H1537.14M1482.67 817.923V872.385M1537.14 817.923H1591.62M1537.14 817.923V872.385M1591.62 817.923H1646.1M1591.62 817.923V872.385M1646.1 817.923H1700.57M1646.1 817.923V872.385M1700.57 817.923H1755.05M1700.57 817.923V872.385M1755.05 817.923H1809.52M1755.05 817.923V872.385M1809.52 817.923H1864M1809.52 817.923V872.385M1864 817.923V872.385M774.476 872.385H828.952M774.476 872.385V926.846M828.952 872.385H883.429M828.952 872.385V926.846M883.429 872.385H937.905M883.429 872.385V926.846M937.905 872.385H992.381M937.905 872.385V926.846M992.381 872.385H1046.86M992.381 872.385V926.846M1046.86 872.385H1101.33M1046.86 872.385V926.846M1101.33 872.385H1155.81M1101.33 872.385V926.846M1155.81 872.385H1210.29M1155.81 872.385V926.846M1210.29 872.385H1264.76M1210.29 872.385V926.846M1264.76 872.385H1319.24M1264.76 872.385V926.846M1319.24 872.385H1373.71M1319.24 872.385V926.846M1373.71 872.385H1428.19M1373.71 872.385V926.846M1428.19 872.385H1482.67M1428.19 872.385V926.846M1482.67 872.385H1537.14M1482.67 872.385V926.846M1537.14 872.385H1591.62M1537.14 872.385V926.846M1591.62 872.385H1646.1M1591.62 872.385V926.846M1646.1 872.385H1700.57M1646.1 872.385V926.846M1700.57 872.385H1755.05M1700.57 872.385V926.846M1755.05 872.385H1809.52M1755.05 872.385V926.846M1809.52 872.385H1864M1809.52 872.385V926.846M1864 872.385V926.846M774.476 926.846H828.952M774.476 926.846V981.308M828.952 926.846H883.429M828.952 926.846V981.308M883.429 926.846H937.905M883.429 926.846V981.308M937.905 926.846H992.381M937.905 926.846V981.308M992.381 926.846H1046.86M992.381 926.846V981.308M1046.86 926.846H1101.33M1046.86 926.846V981.308M1101.33 926.846H1155.81M1101.33 926.846V981.308M1155.81 926.846H1210.29M1155.81 926.846V981.308M1210.29 926.846H1264.76M1210.29 926.846V981.308M1264.76 926.846H1319.24M1264.76 926.846V981.308M1319.24 926.846H1373.71M1319.24 926.846V981.308M1373.71 926.846H1428.19M1373.71 926.846V981.308M1428.19 926.846H1482.67M1428.19 926.846V981.308M1482.67 926.846H1537.14M1482.67 926.846V981.308M1537.14 926.846H1591.62M1537.14 926.846V981.308M1591.62 926.846H1646.1M1591.62 926.846V981.308M1646.1 926.846H1700.57M1646.1 926.846V981.308M1700.57 926.846H1755.05M1700.57 926.846V981.308M1755.05 926.846H1809.52M1755.05 926.846V981.308M1809.52 926.846H1864M1809.52 926.846V981.308M1864 926.846V981.308M774.476 981.308H828.952M774.476 981.308V1035.77M828.952 981.308H883.429M828.952 981.308V1035.77M883.429 981.308H937.905M883.429 981.308V1035.77M937.905 981.308H992.381M937.905 981.308V1035.77M992.381 981.308H1046.86M992.381 981.308V1035.77M1046.86 981.308H1101.33M1046.86 981.308V1035.77M1101.33 981.308H1155.81M1101.33 981.308V1035.77M1155.81 981.308H1210.29M1155.81 981.308V1035.77M1210.29 981.308H1264.76M1210.29 981.308V1035.77M1264.76 981.308H1319.24M1264.76 981.308V1035.77M1319.24 981.308H1373.71M1319.24 981.308V1035.77M1373.71 981.308H1428.19M1373.71 981.308V1035.77M1428.19 981.308H1482.67M1428.19 981.308V1035.77M1482.67 981.308H1537.14M1482.67 981.308V1035.77M1537.14 981.308H1591.62M1537.14 981.308V1035.77M1591.62 981.308H1646.1M1591.62 981.308V1035.77M1646.1 981.308H1700.57M1646.1 981.308V1035.77M1700.57 981.308H1755.05M1700.57 981.308V1035.77M1755.05 981.308H1809.52M1755.05 981.308V1035.77M1809.52 981.308H1864M1809.52 981.308V1035.77M1864 981.308V1035.77M774.476 1035.77H828.952M774.476 1035.77V1090.23M828.952 1035.77H883.429M828.952 1035.77V1090.23M883.429 1035.77H937.905M883.429 1035.77V1090.23M937.905 1035.77H992.381M937.905 1035.77V1090.23M992.381 1035.77H1046.86M992.381 1035.77V1090.23M1046.86 1035.77H1101.33M1046.86 1035.77V1090.23M1101.33 1035.77H1155.81M1101.33 1035.77V1090.23M1155.81 1035.77H1210.29M1155.81 1035.77V1090.23M1210.29 1035.77H1264.76M1210.29 1035.77V1090.23M1264.76 1035.77H1319.24M1264.76 1035.77V1090.23M1319.24 1035.77H1373.71M1319.24 1035.77V1090.23M1373.71 1035.77H1428.19M1373.71 1035.77V1090.23M1428.19 1035.77H1482.67M1428.19 1035.77V1090.23M1482.67 1035.77H1537.14M1482.67 1035.77V1090.23M1537.14 1035.77H1591.62M1537.14 1035.77V1090.23M1591.62 1035.77H1646.1M1591.62 1035.77V1090.23M1646.1 1035.77H1700.57M1646.1 1035.77V1090.23M1700.57 1035.77H1755.05M1700.57 1035.77V1090.23M1755.05 1035.77H1809.52M1755.05 1035.77V1090.23M1809.52 1035.77H1864M1809.52 1035.77V1090.23M1864 1035.77V1090.23M774.476 1090.23H828.952M774.476 1090.23V1144.69M828.952 1090.23H883.429M828.952 1090.23V1144.69M883.429 1090.23H937.905M883.429 1090.23V1144.69M937.905 1090.23H992.381M937.905 1090.23V1144.69M992.381 1090.23H1046.86M992.381 1090.23V1144.69M1046.86 1090.23H1101.33M1046.86 1090.23V1144.69M1101.33 1090.23H1155.81M1101.33 1090.23V1144.69M1155.81 1090.23H1210.29M1155.81 1090.23V1144.69M1210.29 1090.23H1264.76M1210.29 1090.23V1144.69M1264.76 1090.23H1319.24M1264.76 1090.23V1144.69M1319.24 1090.23H1373.71M1319.24 1090.23V1144.69M1373.71 1090.23H1428.19M1373.71 1090.23V1144.69M1428.19 1090.23H1482.67M1428.19 1090.23V1144.69M1482.67 1090.23H1537.14M1482.67 1090.23V1144.69M1537.14 1090.23H1591.62M1537.14 1090.23V1144.69M1591.62 1090.23H1646.1M1591.62 1090.23V1144.69M1646.1 1090.23H1700.57M1646.1 1090.23V1144.69M1700.57 1090.23H1755.05M1700.57 1090.23V1144.69M1755.05 1090.23H1809.52M1755.05 1090.23V1144.69M1809.52 1090.23H1864M1809.52 1090.23V1144.69M1864 1090.23V1144.69M774.476 1144.69H828.952M774.476 1144.69V1199.15M828.952 1144.69H883.429M828.952 1144.69V1199.15M883.429 1144.69H937.905M883.429 1144.69V1199.15M937.905 1144.69H992.381M937.905 1144.69V1199.15M992.381 1144.69H1046.86M992.381 1144.69V1199.15M1046.86 1144.69H1101.33M1046.86 1144.69V1199.15M1101.33 1144.69H1155.81M1101.33 1144.69V1199.15M1155.81 1144.69H1210.29M1155.81 1144.69V1199.15M1210.29 1144.69H1264.76M1210.29 1144.69V1199.15M1264.76 1144.69H1319.24M1264.76 1144.69V1199.15M1319.24 1144.69H1373.71M1319.24 1144.69V1199.15M1373.71 1144.69H1428.19M1373.71 1144.69V1199.15M1428.19 1144.69H1482.67M1428.19 1144.69V1199.15M1482.67 1144.69H1537.14M1482.67 1144.69V1199.15M1537.14 1144.69H1591.62M1537.14 1144.69V1199.15M1591.62 1144.69H1646.1M1591.62 1144.69V1199.15M1646.1 1144.69H1700.57M1646.1 1144.69V1199.15M1700.57 1144.69H1755.05M1700.57 1144.69V1199.15M1755.05 1144.69H1809.52M1755.05 1144.69V1199.15M1809.52 1144.69H1864M1809.52 1144.69V1199.15M1864 1144.69V1199.15M774.476 1199.15H828.952M774.476 1199.15V1253.62M828.952 1199.15H883.429M828.952 1199.15V1253.62M883.429 1199.15H937.905M883.429 1199.15V1253.62M937.905 1199.15H992.381M937.905 1199.15V1253.62M992.381 1199.15H1046.86M992.381 1199.15V1253.62M1046.86 1199.15H1101.33M1046.86 1199.15V1253.62M1101.33 1199.15H1155.81M1101.33 1199.15V1253.62M1155.81 1199.15H1210.29M1155.81 1199.15V1253.62M1210.29 1199.15H1264.76M1210.29 1199.15V1253.62M1264.76 1199.15H1319.24M1264.76 1199.15V1253.62M1319.24 1199.15H1373.71M1319.24 1199.15V1253.62M1373.71 1199.15H1428.19M1373.71 1199.15V1253.62M1428.19 1199.15H1482.67M1428.19 1199.15V1253.62M1482.67 1199.15H1537.14M1482.67 1199.15V1253.62M1537.14 1199.15H1591.62M1537.14 1199.15V1253.62M1591.62 1199.15H1646.1M1591.62 1199.15V1253.62M1646.1 1199.15H1700.57M1646.1 1199.15V1253.62M1700.57 1199.15H1755.05M1700.57 1199.15V1253.62M1755.05 1199.15H1809.52M1755.05 1199.15V1253.62M1809.52 1199.15H1864M1809.52 1199.15V1253.62M1864 1199.15V1253.62M774.476 1253.62H828.952M774.476 1253.62V1308.08M828.952 1253.62H883.429M828.952 1253.62V1308.08M883.429 1253.62H937.905M883.429 1253.62V1308.08M937.905 1253.62H992.381M937.905 1253.62V1308.08M992.381 1253.62H1046.86M992.381 1253.62V1308.08M1046.86 1253.62H1101.33M1046.86 1253.62V1308.08M1101.33 1253.62H1155.81M1101.33 1253.62V1308.08M1155.81 1253.62H1210.29M1155.81 1253.62V1308.08M1210.29 1253.62H1264.76M1210.29 1253.62V1308.08M1264.76 1253.62H1319.24M1264.76 1253.62V1308.08M1319.24 1253.62H1373.71M1319.24 1253.62V1308.08M1373.71 1253.62H1428.19M1373.71 1253.62V1308.08M1428.19 1253.62H1482.67M1428.19 1253.62V1308.08M1482.67 1253.62H1537.14M1482.67 1253.62V1308.08M1537.14 1253.62H1591.62M1537.14 1253.62V1308.08M1591.62 1253.62H1646.1M1591.62 1253.62V1308.08M1646.1 1253.62H1700.57M1646.1 1253.62V1308.08M1700.57 1253.62H1755.05M1700.57 1253.62V1308.08M1755.05 1253.62H1809.52M1755.05 1253.62V1308.08M1809.52 1253.62H1864M1809.52 1253.62V1308.08M1864 1253.62V1308.08M774.476 1308.08H828.952M774.476 1308.08V1362.54M828.952 1308.08H883.429M828.952 1308.08V1362.54M883.429 1308.08H937.905M883.429 1308.08V1362.54M937.905 1308.08H992.381M937.905 1308.08V1362.54M992.381 1308.08H1046.86M992.381 1308.08V1362.54M1046.86 1308.08H1101.33M1046.86 1308.08V1362.54M1101.33 1308.08H1155.81M1101.33 1308.08V1362.54M1155.81 1308.08H1210.29M1155.81 1308.08V1362.54M1210.29 1308.08H1264.76M1210.29 1308.08V1362.54M1264.76 1308.08H1319.24M1264.76 1308.08V1362.54M1319.24 1308.08H1373.71M1319.24 1308.08V1362.54M1373.71 1308.08H1428.19M1373.71 1308.08V1362.54M1428.19 1308.08H1482.67M1428.19 1308.08V1362.54M1482.67 1308.08H1537.14M1482.67 1308.08V1362.54M1537.14 1308.08H1591.62M1537.14 1308.08V1362.54M1591.62 1308.08H1646.1M1591.62 1308.08V1362.54M1646.1 1308.08H1700.57M1646.1 1308.08V1362.54M1700.57 1308.08H1755.05M1700.57 1308.08V1362.54M1755.05 1308.08H1809.52M1755.05 1308.08V1362.54M1809.52 1308.08H1864M1809.52 1308.08V1362.54M1864 1308.08V1362.54M774.476 1362.54H828.952M774.476 1362.54V1417M828.952 1362.54H883.429M828.952 1362.54V1417M883.429 1362.54H937.905M883.429 1362.54V1417M937.905 1362.54H992.381M937.905 1362.54V1417M992.381 1362.54H1046.86M992.381 1362.54V1417M1046.86 1362.54H1101.33M1046.86 1362.54V1417M1101.33 1362.54H1155.81M1101.33 1362.54V1417M1155.81 1362.54H1210.29M1155.81 1362.54V1417M1210.29 1362.54H1264.76M1210.29 1362.54V1417M1264.76 1362.54H1319.24M1264.76 1362.54V1417M1319.24 1362.54H1373.71M1319.24 1362.54V1417M1373.71 1362.54H1428.19M1373.71 1362.54V1417M1428.19 1362.54H1482.67M1428.19 1362.54V1417M1482.67 1362.54H1537.14M1482.67 1362.54V1417M1537.14 1362.54H1591.62M1537.14 1362.54V1417M1591.62 1362.54H1646.1M1591.62 1362.54V1417M1646.1 1362.54H1700.57M1646.1 1362.54V1417M1700.57 1362.54H1755.05M1700.57 1362.54V1417M1755.05 1362.54H1809.52M1755.05 1362.54V1417M1809.52 1362.54H1864M1809.52 1362.54V1417M1864 1362.54V1417H1809.52M774.476 1417H828.952M828.952 1417H883.429M883.429 1417H937.905M937.905 1417H992.381M992.381 1417H1046.86M1046.86 1417H1101.33M1101.33 1417H1155.81M1155.81 1417H1210.29M1210.29 1417H1264.76M1264.76 1417H1319.24M1319.24 1417H1373.71M1373.71 1417H1428.19M1428.19 1417H1482.67M1482.67 1417H1537.14M1537.14 1417H1591.62M1591.62 1417H1646.1M1646.1 1417H1700.57M1700.57 1417H1755.05M1755.05 1417H1809.52" stroke="url(#paint0_linear_554_3844)" stroke-linecap="round" stroke-linejoin="round"/>
<defs>
<linearGradient id="paint0_linear_554_3844" x1="720" y1="1" x2="720" y2="1417" gradientUnits="userSpaceOnUse">
<stop stop-color="#FAFAFF" stop-opacity="0"/>
<stop offset="0.47" stop-color="#343434" stop-opacity="0.15"/>
<stop offset="1" stop-color="#FAFAFF" stop-opacity="0"/>
</linearGradient>
</defs>
</svg>
